# xmcd CD database file
#
# Track frame offsets:
#	150
#	22440
#	43707
#	68790
#	92927
#	114470
#
# Disc length: 1784 seconds
#
# Revision: 0
# Processed by: cddbd v1.5.2PL0 Copyright (c) Steve Scherf et al.
# Submitted via: CDex 1.70beta2
#
DISCID=5306f606
DTITLE=Johnny Griffin Quartet and 3 - Dance of Passion (radio edits)
DYEAR=1993
DGENRE=Jazz
TTITLE0=Dance of Passion
TTITLE1=The Way It Is
TTITLE2=Take My Hand
TTITLE3=You've Never Been There
TTITLE4=Dawn
TTITLE5=All Through the Night
EXTD=YEAR: 1993
EXTT0=
EXTT1=
EXTT2=
EXTT3=
EXTT4=
EXTT5=
PLAYORDER=
